<svg xmlns="http://www.w3.org/2000/svg" xmlns:svg="http://www.w3.org/2000/svg" id="svg25" width="492" height="492" version="1.1" xml:space="preserve" style="enable-background:new 0 0 492 492"><metadata id="metadata31"/><rect id="backgroundrect" width="100%" height="100%" x="0" y="0" fill="none" stroke="none"/><g id="g23" class="currentLayer" transform="rotate(-180,245.99995,246)" style="image-rendering:auto;fill:#ff7878;fill-opacity:1"><title id="title3">Layer 1</title><g style="fill:#ff7878;fill-opacity:1" id="svg_1"><g style="fill:#ff7878;fill-opacity:1" id="svg_2"><path style="fill:#ff7878;fill-opacity:1" id="svg_3" d="M 198.608,246.104 382.664,62.04 c 5.068,-5.056 7.856,-11.816 7.856,-19.024 0,-7.212 -2.788,-13.968 -7.856,-19.032 L 366.536,7.864 C 361.476,2.792 354.712,0 347.504,0 340.296,0 333.54,2.792 328.476,7.864 L 109.328,227.008 c -5.084,5.08 -7.868,11.868 -7.848,19.084 -0.02,7.248 2.76,14.028 7.848,19.112 l 218.944,218.932 c 5.064,5.072 11.82,7.864 19.032,7.864 7.208,0 13.964,-2.792 19.032,-7.864 l 16.124,-16.12 c 10.492,-10.492 10.492,-27.572 0,-38.06 z"/></g></g></g></svg>